<svg id="Layer_1" data-name="Layer 1" xmlns="http://www.w3.org/2000/svg" viewBox="0 0 30 30"><defs><style>.cls-1{fill:#214796;}.cls-2,.cls-3{fill:none;stroke-linecap:round;stroke-linejoin:round;stroke-width:1.4px;}.cls-2{stroke:#214796;}.cls-3{stroke:#fff;}</style></defs><path class="cls-1" d="M22.45667,24.10059H7.54364a3.54348,3.54348,0,0,1-3.5434-3.54346V8.69385H26.00006V20.55713A3.54344,3.54344,0,0,1,22.45667,24.10059Z"/><path class="cls-2" d="M22.45667,24.10059H7.54364a3.54348,3.54348,0,0,1-3.5434-3.54346V8.69385H26.00006V20.55713A3.54344,3.54344,0,0,1,22.45667,24.10059Z"/><line class="cls-3" x1="4" y1="18.50354" x2="11.72914" y2="18.50354"/><line class="cls-3" x1="18.35071" y1="18.50354" x2="25.81332" y2="18.50354"/><path class="cls-3" d="M16.46106,20.39355H13.65448a1.88989,1.88989,0,0,1,0-3.77978h2.80658a1.88989,1.88989,0,0,1,0,3.77978Z"/><path class="cls-2" d="M14.82056,5.40576c-1.70844,0-3.09119.44971-3.09119,1.00537V8.69385"/><path class="cls-2" d="M14.8205,5.40576c1.70843,0,3.09112.44971,3.09112,1.00537V8.69385"/></svg>