<svg id="Layer_1" data-name="Layer 1" xmlns="http://www.w3.org/2000/svg" viewBox="0 0 30 30"><defs><style>.cls-1{fill:none;stroke:#214796;stroke-linecap:round;stroke-linejoin:round;stroke-width:1.4px;}</style></defs><path class="cls-1" d="M22.4566,24.10059H7.54358a3.54348,3.54348,0,0,1-3.5434-3.54346V8.69385H26V20.55713A3.54345,3.54345,0,0,1,22.4566,24.10059Z"/><line class="cls-1" x1="4" y1="18.50354" x2="11.72914" y2="18.50354"/><line class="cls-1" x1="18.35077" y1="18.50354" x2="25.81338" y2="18.50354"/><path class="cls-1" d="M16.46112,20.39355H13.65454a1.88989,1.88989,0,0,1,0-3.77978h2.80658a1.88989,1.88989,0,0,1,0,3.77978Z"/><path class="cls-1" d="M14.8205,5.40576c-1.70844,0-3.09119.44971-3.09119,1.00537V8.69385"/><path class="cls-1" d="M14.8205,5.40576c1.70843,0,3.09112.44971,3.09112,1.00537V8.69385"/></svg>