<svg id="Layer_1" data-name="Layer 1" xmlns="http://www.w3.org/2000/svg" viewBox="0 0 30 30"><defs><style>.cls-1,.cls-3{fill:none;stroke:#234496;stroke-width:1.4px;}.cls-1{stroke-linecap:round;stroke-linejoin:round;}.cls-2{fill:#214795;opacity:0.102;}</style></defs><path class="cls-1" d="M8.48935,9.44514h17.7581a1.452,1.452,0,0,1,1.408,1.85271l-2.1028,9.43323A1.46616,1.46616,0,0,1,24.143,21.777H10.52608m-.02193-.00832L7.52914,4.05078H1.71461"/><path class="cls-1" d="M8.48947,9.44516H26.24753a1.452,1.452,0,0,1,1.408,1.85271L25.55273,20.7311A1.46614,1.46614,0,0,1,24.1431,21.777H10.52615Z"/><path class="cls-2" d="M15.20032,23.99617A2.22737,2.22737,0,1,1,12.973,21.76881a2.22678,2.22678,0,0,1,2.22734,2.22736"/><path class="cls-3" d="M15.20032,23.99617A2.22737,2.22737,0,1,1,12.973,21.76881a2.22678,2.22678,0,0,1,2.22734,2.22736"/><path class="cls-2" d="M24.73755,23.99616a2.22736,2.22736,0,1,1-2.22739-2.22736,2.227,2.227,0,0,1,2.22739,2.22736"/><path class="cls-3" d="M24.73755,23.99616a2.22736,2.22736,0,1,1-2.22739-2.22736,2.227,2.227,0,0,1,2.22739,2.22736"/></svg>