<svg id="Layer_1" data-name="Layer 1" xmlns="http://www.w3.org/2000/svg" viewBox="0 0 30 30"><defs><style>.cls-1{fill:#234496;}.cls-2,.cls-4,.cls-5{fill:none;stroke-width:1.4px;}.cls-2,.cls-5{stroke:#234496;}.cls-2{stroke-miterlimit:10;}.cls-3{fill:#fff;}.cls-4{stroke:#fff;stroke-linecap:round;}.cls-5{stroke-linejoin:round;}</style></defs><path class="cls-1" d="M24.15385,24.19872H3.84615A1.88794,1.88794,0,0,1,2,22.28205v-3.45A1.88793,1.88793,0,0,1,3.84615,16.9154h20.3077A1.88793,1.88793,0,0,1,26,18.83207V22.314A1.88054,1.88054,0,0,1,24.15385,24.19872Z"/><path class="cls-2" d="M24.15385,24.19872H3.84615A1.88794,1.88794,0,0,1,2,22.28205v-3.45A1.88793,1.88793,0,0,1,3.84615,16.9154h20.3077A1.88793,1.88793,0,0,1,26,18.83207V22.314A1.88054,1.88054,0,0,1,24.15385,24.19872Z"/><path class="cls-3" d="M5.50762,19.311a1.1508,1.1508,0,0,1,.45922.09483,1.18665,1.18665,0,0,1,.3893.27006,1.238,1.238,0,0,1,.26013.40418,1.28979,1.28979,0,0,1,0,.95352,1.238,1.238,0,0,1-.26013.40418,1.1868,1.1868,0,0,1-.3893.27006,1.15932,1.15932,0,0,1-.91844,0,1.18688,1.18688,0,0,1-.38931-.27006,1.23828,1.23828,0,0,1-.26013-.40418,1.28992,1.28992,0,0,1,0-.95352,1.23828,1.23828,0,0,1,.26013-.40418,1.18658,1.18658,0,0,1,.38931-.27006A1.15076,1.15076,0,0,1,5.50762,19.311Z"/><ellipse class="cls-3" cx="9.04534" cy="20.55687" rx="1.2" ry="1.24583"/><line class="cls-4" x1="15.34863" y1="20.55676" x2="22.67871" y2="20.55676"/><circle class="cls-1" cx="20.66911" cy="7.66667" r="1.96667"/><path class="cls-1" d="M20.66911,5a2.66667,2.66667,0,1,1-2.66667,2.66667A2.66667,2.66667,0,0,1,20.66911,5Zm0,1.4a1.26667,1.26667,0,1,0,1.26667,1.26667A1.26811,1.26811,0,0,0,20.66911,6.4"/><polygon class="cls-1" points="19.226 16.915 20.757 7.4 22.058 16.915 19.226 16.915"/><polygon class="cls-5" points="19.226 16.915 20.757 7.4 22.058 16.915 19.226 16.915"/></svg>