<svg id="Layer_1" data-name="Layer 1" xmlns="http://www.w3.org/2000/svg" viewBox="0 0 30 30"><defs><style>.cls-1,.cls-3{fill:none;stroke:#234496;stroke-miterlimit:10;stroke-width:1.4px;}.cls-2{fill:#234496;}.cls-3{stroke-linecap:round;}</style></defs><path class="cls-1" d="M24.09385,23.60807H4.75782A1.763,1.763,0,0,1,3,21.85025V18.68618a1.763,1.763,0,0,1,1.75782-1.75782h19.336a1.763,1.763,0,0,1,1.75782,1.75782v3.19337A1.7571,1.7571,0,0,1,24.09385,23.60807Z"/><path class="cls-2" d="M6.33985,19.125a1.14251,1.14251,0,1,1-.43725.087A1.13182,1.13182,0,0,1,6.33985,19.125Z"/><path class="cls-2" d="M9.70905,19.125a1.14251,1.14251,0,1,1-.43725.087A1.13175,1.13175,0,0,1,9.70905,19.125Z"/><line class="cls-3" x1="19.69928" y1="8.16797" x2="19.69928" y2="16.92778"/><path class="cls-3" d="M16.6524,10.30666A3.02393,3.02393,0,0,1,16.6524,6"/><path class="cls-3" d="M22.74614,6a3.024,3.024,0,0,1,0,4.30666"/></svg>