<svg id="Layer_1" data-name="Layer 1" xmlns="http://www.w3.org/2000/svg" viewBox="0 0 30 30"><defs><style>.cls-1{fill:none;stroke:#234496;stroke-miterlimit:10;stroke-width:1.4px;}.cls-2{fill:#214796;}.cls-3{fill:#fff;}</style></defs><path class="cls-1" d="M20.47106,24.65605a1.961,1.961,0,0,1-1.80635,2.08189H8.80635A1.94194,1.94194,0,0,1,7,24.65605V4.93931A1.94194,1.94194,0,0,1,8.80635,2.85742h9.889a1.93926,1.93926,0,0,1,1.77573,2.08189Z"/><path class="cls-2" d="M20.47106,24.65591a1.961,1.961,0,0,1-1.80635,2.08188H8.80635A1.94194,1.94194,0,0,1,7,24.65591V4.9393A1.94194,1.94194,0,0,1,8.80635,2.85742h9.889A1.93925,1.93925,0,0,1,20.47106,4.9393Z"/><path class="cls-1" d="M20.47106,24.65591a1.961,1.961,0,0,1-1.80635,2.08188H8.80635A1.94194,1.94194,0,0,1,7,24.65591V4.9393A1.94194,1.94194,0,0,1,8.80635,2.85742h9.889A1.93925,1.93925,0,0,1,20.47106,4.9393Z"/><circle class="cls-3" cx="13.79677" cy="23.24765" r="1.22464"/></svg>