<svg id="Layer_1" data-name="Layer 1" xmlns="http://www.w3.org/2000/svg" viewBox="0 0 30 30"><defs><style>.cls-1,.cls-2{fill:none;stroke:#234496;stroke-width:1.4px;}.cls-1{stroke-linecap:round;stroke-linejoin:round;}.cls-3{fill:#234496;}</style></defs><path class="cls-1" d="M20.57219,26.19594h0A2.55817,2.55817,0,0,1,18.2243,27h-.28947a10.70454,10.70454,0,0,1-4.21335-1.25435A22.02129,22.02129,0,0,1,6.324,19.95632a19.28827,19.28827,0,0,1-3.66658-6.01447,8.74939,8.74939,0,0,1-.64326-3.50577,2.62786,2.62786,0,0,1,.8684-2.02626,1.63734,1.63734,0,0,1,2.41222.12865l2.63737,3.37711a1.66549,1.66549,0,0,1-.09649,2.18708L6.517,15.42134s3.50576,4.79229,7.07585,7.01153l1.31868-1.31868a1.605,1.605,0,0,1,2.21925-.09649l3.37711,2.79818A1.64879,1.64879,0,0,1,20.57219,26.19594Z"/><path class="cls-2" d="M13.4852,17.36282c.86712-.80421,1.113-2.59028,1.17383-3.84412-1.90654-.96431-3.14835-2.53859-3.14835-4.31677,0-2.93434,3.3803-5.313,7.54981-5.313s7.54982,2.3787,7.54982,5.313c0,2.93388-3.38031,5.31258-7.54982,5.31258a10.732,10.732,0,0,1-1.27967-.076c-1.64281,1.2045-4.30375,3.136-4.47451,3.13572C13.275,17.57418,13.32739,17.50919,13.4852,17.36282Z"/><circle class="cls-3" cx="16.28327" cy="9.25797" r="1.19324"/><path class="cls-3" d="M19.09058,8.06473a1.19327,1.19327,0,1,1-.45663.09083A1.182,1.182,0,0,1,19.09058,8.06473Z"/><path class="cls-3" d="M21.89844,8.06473a1.19327,1.19327,0,1,1-.45663.09083A1.18191,1.18191,0,0,1,21.89844,8.06473Z"/></svg>