<svg id="Layer_1" data-name="Layer 1" xmlns="http://www.w3.org/2000/svg" viewBox="0 0 30 30"><defs><style>.cls-1{fill:#234496;}.cls-2,.cls-3{fill:none;stroke:#234496;stroke-width:1.4px;}.cls-2{stroke-linecap:round;stroke-linejoin:round;}.cls-4{fill:#fff;}</style></defs><path class="cls-1" d="M21.267,25.75163a2.55818,2.55818,0,0,1-2.3479.80407h-.28947a10.70442,10.70442,0,0,1-4.21335-1.25435A22.02117,22.02117,0,0,1,7.01882,19.512a19.28842,19.28842,0,0,1-3.66657-6.01447A8.74934,8.74934,0,0,1,2.709,9.99178a2.62786,2.62786,0,0,1,.8684-2.02627,1.63734,1.63734,0,0,1,2.41222.12865L8.627,11.47128a1.66548,1.66548,0,0,1-.09649,2.18708L7.2118,14.977s3.50576,4.79228,7.07585,7.01152l1.31868-1.31868a1.605,1.605,0,0,1,2.21925-.09649l3.37711,2.79818A1.64879,1.64879,0,0,1,21.267,25.75163Z"/><path class="cls-2" d="M21.267,25.75163h0a2.55818,2.55818,0,0,1-2.3479.80407h-.28947a10.70442,10.70442,0,0,1-4.21335-1.25435A22.02117,22.02117,0,0,1,7.01882,19.512a19.28842,19.28842,0,0,1-3.66657-6.01447A8.74934,8.74934,0,0,1,2.709,9.99178a2.62786,2.62786,0,0,1,.8684-2.02627,1.63734,1.63734,0,0,1,2.41222.12865L8.627,11.47128a1.66548,1.66548,0,0,1-.09649,2.18708L7.2118,14.977s3.50576,4.79228,7.07585,7.01152l1.31868-1.31868a1.605,1.605,0,0,1,2.21925-.09649l3.37711,2.79818A1.64879,1.64879,0,0,1,21.267,25.75163Z"/><path class="cls-1" d="M14.18009,16.91852c.86712-.80421,1.11295-2.59028,1.17383-3.84412-1.90655-.96432-3.14835-2.5386-3.14835-4.31677,0-2.93435,3.38029-5.31305,7.54981-5.31305s7.54982,2.3787,7.54982,5.31305c0,2.93387-3.38032,5.31258-7.54982,5.31258a10.72969,10.72969,0,0,1-1.27967-.076c-1.64282,1.20451-4.30376,3.136-4.47452,3.13573C13.96988,17.12987,14.02227,17.06488,14.18009,16.91852Z"/><path class="cls-3" d="M14.18009,16.91852c.86712-.80421,1.11295-2.59028,1.17383-3.84412-1.90655-.96432-3.14835-2.5386-3.14835-4.31677,0-2.93435,3.38029-5.31305,7.54981-5.31305s7.54982,2.3787,7.54982,5.31305c0,2.93387-3.38032,5.31258-7.54982,5.31258a10.72969,10.72969,0,0,1-1.27967-.076c-1.64282,1.20451-4.30376,3.136-4.47452,3.13573C13.96988,17.12987,14.02227,17.06488,14.18009,16.91852Z"/><circle class="cls-4" cx="16.97803" cy="8.8136" r="1.19324"/><circle class="cls-4" cx="19.7854" cy="8.8136" r="1.19324"/><circle class="cls-4" cx="22.59327" cy="8.8136" r="1.19324"/></svg>