<svg xmlns="http://www.w3.org/2000/svg" width="24" height="24" viewBox="0 0 24 24"><defs><style>.a{fill:none;}</style></defs><g transform="translate(-358.944 -6530.074)"><path d="M378.038,6546.79H367.793a.731.731,0,0,1-.274-.052.746.746,0,0,1-.482-.58l-2.133-12.7h-3.74a.75.75,0,1,1,0-1.5h4.374a.751.751,0,0,1,.74.626l.576,3.433h12.767a1.84,1.84,0,0,1,1.487.742,1.813,1.813,0,0,1,.3,1.586l-1.577,7.076c0,.016-.008.032-.013.048A1.862,1.862,0,0,1,378.038,6546.79Zm-9.626-1.5h9.626a.358.358,0,0,0,.336-.232l1.575-7.066c0-.016.008-.032.012-.048a.326.326,0,0,0-.053-.292.353.353,0,0,0-.287-.141H367.106Zm10.686-.038h0Z"/><path d="M371.31,6550.52a1.676,1.676,0,1,1-1.676-1.676,1.675,1.675,0,0,1,1.676,1.676"/><path d="M378.485,6550.52a1.676,1.676,0,1,1-1.676-1.676,1.675,1.675,0,0,1,1.676,1.676"/></g><rect class="a" width="24" height="24"/></svg>