<svg xmlns="http://www.w3.org/2000/svg" width="24" height="24" viewBox="0 0 24 24"><defs><style>.a{fill:none;}.b{fill:#fff;}</style></defs><rect class="a" width="24" height="24" transform="translate(0 0)"/><g transform="translate(4.486 4.487)"><path class="b" d="M770.1,1415.009l5.435-5.435a.747.747,0,0,0-1.057-1.057l-5.435,5.436-5.435-5.436a.748.748,0,0,0-1.057,1.057l5.435,5.435-5.435,5.435a.747.747,0,0,0,.529,1.275.739.739,0,0,0,.528-.218l5.435-5.435,5.435,5.435a.749.749,0,0,0,1.057,0,.748.748,0,0,0,0-1.057Z" transform="translate(-761.546 -1407.555)"/><rect class="a" width="15" height="15" transform="translate(-0.486 -0.487)"/></g></svg>