<svg xmlns="http://www.w3.org/2000/svg" width="20" height="20" viewBox="0 0 20 20"><defs><style>.a{fill:#315cbb;}.b{fill:none;}</style></defs><g transform="translate(-630.537 -1595.01)"><path class="a" d="M640.537,1596.252a8.759,8.759,0,1,0,8.758,8.759A8.76,8.76,0,0,0,640.537,1596.252Zm0,16.267a7.509,7.509,0,1,1,7.508-7.508A7.517,7.517,0,0,1,640.537,1612.519Z"/><path class="a" d="M643.279,1602.262a.624.624,0,0,0-.883,0l-1.865,1.865-1.865-1.865a.625.625,0,0,0-.883.884l1.865,1.865-1.865,1.864a.625.625,0,1,0,.883.884l1.865-1.865,1.865,1.865a.625.625,0,1,0,.883-.884l-1.865-1.864,1.865-1.865A.625.625,0,0,0,643.279,1602.262Z"/></g><rect class="b" width="18" height="18" transform="translate(1 1)"/><rect class="b" width="20" height="20"/></svg>