<svg id="Layer_1" data-name="Layer 1" xmlns="http://www.w3.org/2000/svg" viewBox="0 0 30 30"><defs><style>.cls-1,.cls-2,.cls-3{fill:none;stroke:#214796;stroke-linecap:round;stroke-width:1.4px;}.cls-1{stroke-linejoin:bevel;}.cls-2{stroke-linejoin:round;}.cls-3{stroke-miterlimit:10;}</style></defs><line class="cls-1" x1="5.48689" y1="20.33044" x2="4.75159" y2="24.69172"/><line class="cls-1" x1="5.48743" y1="20.33044" x2="10.11168" y2="21.06162"/><line class="cls-2" x1="11.8302" y1="10.02502" x2="18.13543" y2="10.02502"/><line class="cls-2" x1="11.8302" y1="12.76721" x2="18.13543" y2="12.76721"/><path class="cls-2" d="M16.66406,19.89731l-3.80969-4.38819h1.05127a2.74231,2.74231,0,1,0,0-5.48452H11.80389"/><path class="cls-3" d="M5.70737,20.942a11.07343,11.07343,0,0,0,19.07907-.96631A10.93221,10.93221,0,0,0,20.06775,5.25348l-.06744-.03427A11.05414,11.05414,0,0,0,5.15594,9.94629,10.5546,10.5546,0,0,0,4,13.81146"/></svg>