<?xml version="1.0" encoding="utf-8"?>
<!-- Generator: Adobe Illustrator 25.0.0, SVG Export Plug-In . SVG Version: 6.00 Build 0)  -->
<svg version="1.1" id="Layer_1" xmlns="http://www.w3.org/2000/svg" xmlns:xlink="http://www.w3.org/1999/xlink" x="0px" y="0px"
	 viewBox="0 0 30 30" style="enable-background:new 0 0 30 30;" xml:space="preserve">
<style type="text/css">
	.st0{fill:#214796;}
	.st1{fill:#FFFFFF;}
</style>
<path class="st0" d="M15,0c0.98,0,1.96,0.1,2.93,0.29c0.97,0.19,1.9,0.48,2.81,0.85c0.91,0.38,1.77,0.84,2.59,1.39
	c0.82,0.55,1.58,1.17,2.27,1.87s1.32,1.45,1.87,2.27s1.01,1.68,1.39,2.59c0.38,0.91,0.66,1.85,0.85,2.81C29.9,13.04,30,14.02,30,15
	c0,0.98-0.1,1.96-0.29,2.93c-0.19,0.97-0.48,1.9-0.85,2.81c-0.38,0.91-0.84,1.77-1.39,2.59c-0.55,0.82-1.17,1.58-1.87,2.27
	s-1.45,1.32-2.27,1.87c-0.82,0.55-1.68,1.01-2.59,1.39c-0.91,0.38-1.85,0.66-2.81,0.85C16.96,29.9,15.98,30,15,30
	c-0.98,0-1.96-0.1-2.93-0.29c-0.97-0.19-1.9-0.48-2.81-0.85s-1.77-0.84-2.59-1.39s-1.58-1.17-2.27-1.87s-1.32-1.45-1.87-2.27
	c-0.55-0.82-1.01-1.68-1.39-2.59c-0.38-0.91-0.66-1.85-0.85-2.81C0.1,16.96,0,15.98,0,15c0-0.98,0.1-1.96,0.29-2.93
	c0.19-0.97,0.48-1.9,0.85-2.81c0.38-0.91,0.84-1.77,1.39-2.59S3.7,5.09,4.39,4.39s1.45-1.32,2.27-1.87
	c0.82-0.55,1.68-1.01,2.59-1.39c0.91-0.38,1.85-0.66,2.81-0.85C13.04,0.1,14.02,0,15,0z"/>
<path class="st1" d="M12.61,10.1v2.2H11v2.69h1.61V23h3.31v-8.01h2.22c0,0,0.21-1.29,0.31-2.7h-2.52v-1.84
	c0-0.28,0.36-0.65,0.72-0.65h1.81V7h-2.46C12.53,7,12.61,9.7,12.61,10.1"/>
</svg>
