<?xml version="1.0" encoding="utf-8"?>
<!-- Generator: Adobe Illustrator 25.0.0, SVG Export Plug-In . SVG Version: 6.00 Build 0)  -->
<svg version="1.1" id="Layer_1" xmlns="http://www.w3.org/2000/svg" xmlns:xlink="http://www.w3.org/1999/xlink" x="0px" y="0px"
	 viewBox="0 0 30 30" style="enable-background:new 0 0 30 30;" xml:space="preserve">
<style type="text/css">
	.st0{fill:#214796;}
	.st1{fill:#FFFFFF;}
</style>
<path class="st0" d="M15,0c0.98,0,1.96,0.1,2.93,0.29c0.97,0.19,1.9,0.48,2.81,0.85c0.91,0.38,1.77,0.84,2.59,1.39
	c0.82,0.55,1.58,1.17,2.27,1.87s1.32,1.45,1.87,2.27s1.01,1.68,1.39,2.59c0.38,0.91,0.66,1.85,0.85,2.81C29.9,13.04,30,14.02,30,15
	c0,0.98-0.1,1.96-0.29,2.93c-0.19,0.97-0.48,1.9-0.85,2.81c-0.38,0.91-0.84,1.77-1.39,2.59c-0.55,0.82-1.17,1.58-1.87,2.27
	s-1.45,1.32-2.27,1.87c-0.82,0.55-1.68,1.01-2.59,1.39c-0.91,0.38-1.85,0.66-2.81,0.85C16.96,29.9,15.98,30,15,30
	c-0.98,0-1.96-0.1-2.93-0.29c-0.97-0.19-1.9-0.48-2.81-0.85s-1.77-0.84-2.59-1.39s-1.58-1.17-2.27-1.87s-1.32-1.45-1.87-2.27
	c-0.55-0.82-1.01-1.68-1.39-2.59c-0.38-0.91-0.66-1.85-0.85-2.81C0.1,16.96,0,15.98,0,15c0-0.98,0.1-1.96,0.29-2.93
	c0.19-0.97,0.48-1.9,0.85-2.81c0.38-0.91,0.84-1.77,1.39-2.59S3.7,5.09,4.39,4.39s1.45-1.32,2.27-1.87
	c0.82-0.55,1.68-1.01,2.59-1.39c0.91-0.38,1.85-0.66,2.81-0.85C13.04,0.1,14.02,0,15,0z"/>
<path class="st1" d="M15,12.34c3.52,0,3.53,5.33,0,5.33C11.48,17.67,11.47,12.34,15,12.34z M15,10.9c-2.27,0-4.11,1.84-4.11,4.11
	s1.84,4.11,4.11,4.11s4.11-1.84,4.11-4.11S17.27,10.9,15,10.9L15,10.9z M19.27,9.78c-0.53,0-0.96,0.43-0.96,0.96
	s0.43,0.96,0.96,0.96c0.53,0,0.96-0.43,0.96-0.96S19.8,9.78,19.27,9.78z M14.28,8.45c6.84-0.01,7.71-0.77,7.22,9.79
	c-0.17,3.73-3.01,3.32-6.51,3.32c-6.37,0-6.55-0.18-6.55-6.56C8.45,8.55,8.95,8.45,14.28,8.45L14.28,8.45z M15,7.01
	c-3.28,0-6.39-0.29-7.58,2.76C6.93,11.03,7,12.66,7,15.01c0,2.06-0.07,3.99,0.42,5.24C8.61,23.3,11.75,23,15,23
	c3.14,0,6.37,0.33,7.58-2.76c0.49-1.27,0.42-2.88,0.42-5.24c0-3.12,0.17-5.14-1.34-6.66C20.12,6.82,18.04,7.01,15,7.01L15,7.01z"/>
</svg>
