<?xml version="1.0" encoding="utf-8"?>
<!-- Generator: Adobe Illustrator 25.0.0, SVG Export Plug-In . SVG Version: 6.00 Build 0)  -->
<svg version="1.1" id="Layer_1" xmlns="http://www.w3.org/2000/svg" xmlns:xlink="http://www.w3.org/1999/xlink" x="0px" y="0px"
	 viewBox="0 0 30 30" style="enable-background:new 0 0 30 30;" xml:space="preserve">
<style type="text/css">
	.st0{fill:#214796;}
	.st1{fill:#FFFFFF;}
</style>
<path class="st0" d="M15,0c0.98,0,1.96,0.1,2.93,0.29c0.97,0.19,1.9,0.48,2.81,0.85c0.91,0.38,1.77,0.84,2.59,1.39
	c0.82,0.55,1.58,1.17,2.27,1.87s1.32,1.45,1.87,2.27s1.01,1.68,1.39,2.59c0.38,0.91,0.66,1.85,0.85,2.81C29.9,13.04,30,14.02,30,15
	c0,0.98-0.1,1.96-0.29,2.93c-0.19,0.97-0.48,1.9-0.85,2.81c-0.38,0.91-0.84,1.77-1.39,2.59c-0.55,0.82-1.17,1.58-1.87,2.27
	s-1.45,1.32-2.27,1.87c-0.82,0.55-1.68,1.01-2.59,1.39c-0.91,0.38-1.85,0.66-2.81,0.85C16.96,29.9,15.98,30,15,30
	c-0.98,0-1.96-0.1-2.93-0.29c-0.97-0.19-1.9-0.48-2.81-0.85s-1.77-0.84-2.59-1.39s-1.58-1.17-2.27-1.87s-1.32-1.45-1.87-2.27
	c-0.55-0.82-1.01-1.68-1.39-2.59c-0.38-0.91-0.66-1.85-0.85-2.81C0.1,16.96,0,15.98,0,15c0-0.98,0.1-1.96,0.29-2.93
	c0.19-0.97,0.48-1.9,0.85-2.81c0.38-0.91,0.84-1.77,1.39-2.59S3.7,5.09,4.39,4.39s1.45-1.32,2.27-1.87
	c0.82-0.55,1.68-1.01,2.59-1.39c0.91-0.38,1.85-0.66,2.81-0.85C13.04,0.1,14.02,0,15,0z"/>
<path class="st1" d="M23,10.54c-0.59,0.26-1.22,0.44-1.88,0.52c0.68-0.41,1.2-1.05,1.44-1.81c-0.64,0.38-1.34,0.65-2.09,0.8
	C19.87,9.4,19.02,9,18.08,9c-1.81,0-3.28,1.47-3.28,3.28c0,0.26,0.03,0.51,0.09,0.75c-2.73-0.14-5.15-1.44-6.76-3.43
	c-0.28,0.48-0.44,1.05-0.44,1.65c0,1.14,0.58,2.14,1.46,2.73c-0.54-0.02-1.04-0.17-1.49-0.41v0.04c0,1.59,1.13,2.92,2.63,3.22
	C10,16.9,9.71,16.94,9.41,16.94c-0.21,0-0.42-0.02-0.62-0.06c0.42,1.31,1.63,2.25,3.07,2.28c-1.12,0.88-2.54,1.4-4.08,1.4
	c-0.26,0-0.53-0.01-0.78-0.04C8.45,21.45,10.18,22,12.03,22c6.04,0,9.34-5,9.34-9.34l-0.01-0.42C22,11.77,22.56,11.2,23,10.54"/>
</svg>
