<?xml version="1.0" encoding="utf-8"?>
<!-- Generator: Adobe Illustrator 25.0.0, SVG Export Plug-In . SVG Version: 6.00 Build 0)  -->
<svg version="1.1" id="Layer_1" xmlns="http://www.w3.org/2000/svg" xmlns:xlink="http://www.w3.org/1999/xlink" x="0px" y="0px"
	 viewBox="0 0 30 30" style="enable-background:new 0 0 30 30;" xml:space="preserve">
<style type="text/css">
	.st0{fill:#214796;}
	.st1{fill:#FFFFFF;}
</style>
<path class="st0" d="M15,0c0.98,0,1.96,0.1,2.93,0.29c0.97,0.19,1.9,0.48,2.81,0.85c0.91,0.38,1.77,0.84,2.59,1.39
	c0.82,0.55,1.58,1.17,2.27,1.87s1.32,1.45,1.87,2.27s1.01,1.68,1.39,2.59c0.38,0.91,0.66,1.85,0.85,2.81C29.9,13.04,30,14.02,30,15
	c0,0.98-0.1,1.96-0.29,2.93c-0.19,0.97-0.48,1.9-0.85,2.81c-0.38,0.91-0.84,1.77-1.39,2.59c-0.55,0.82-1.17,1.58-1.87,2.27
	s-1.45,1.32-2.27,1.87c-0.82,0.55-1.68,1.01-2.59,1.39c-0.91,0.38-1.85,0.66-2.81,0.85C16.96,29.9,15.98,30,15,30
	c-0.98,0-1.96-0.1-2.93-0.29c-0.97-0.19-1.9-0.48-2.81-0.85s-1.77-0.84-2.59-1.39s-1.58-1.17-2.27-1.87s-1.32-1.45-1.87-2.27
	c-0.55-0.82-1.01-1.68-1.39-2.59c-0.38-0.91-0.66-1.85-0.85-2.81C0.1,16.96,0,15.98,0,15c0-0.98,0.1-1.96,0.29-2.93
	c0.19-0.97,0.48-1.9,0.85-2.81c0.38-0.91,0.84-1.77,1.39-2.59S3.7,5.09,4.39,4.39s1.45-1.32,2.27-1.87
	c0.82-0.55,1.68-1.01,2.59-1.39c0.91-0.38,1.85-0.66,2.81-0.85C13.04,0.1,14.02,0,15,0z"/>
<path class="st1" d="M13.35,16.7l0-4.5l4.32,2.26L13.35,16.7z M22.84,11.43c0,0-0.16-1.1-0.64-1.59C21.6,9.2,20.91,9.2,20.6,9.16
	C18.36,9,15,9,15,9H15c0,0-3.36,0-5.6,0.16C9.09,9.2,8.4,9.2,7.8,9.84c-0.48,0.49-0.64,1.59-0.64,1.59S7,12.72,7,14.02v1.21
	c0,1.29,0.16,2.59,0.16,2.59s0.16,1.1,0.64,1.59c0.61,0.64,1.41,0.62,1.76,0.68c1.28,0.12,5.44,0.16,5.44,0.16s3.36-0.01,5.6-0.17
	c0.31-0.04,0.99-0.04,1.6-0.68c0.48-0.49,0.64-1.59,0.64-1.59S23,16.53,23,15.23v-1.21C23,12.72,22.84,11.43,22.84,11.43"/>
</svg>
